<?xml version="1.0" encoding="UTF-8"?>
<!DOCTYPE svg PUBLIC "-//W3C//DTD SVG 1.1//EN" "http://www.w3.org/Graphics/SVG/1.1/DTD/svg11.dtd">
<svg
  xmlns="http://www.w3.org/2000/svg"
  viewBox="0 0 410 94"
  width="410px"
  height="94px"
  filter="drop-shadow(0 4px 8px rgba(0, 0, 0, 0.15))"
  role="img"
  aria-label="Mirascope Logo"
>
  <defs>
    <style>
      @font-face {
        font-family: 'Williams Handwriting';
        src: url('../../fonts/Williams-Handwriting-Regular-v1.ttf') format('truetype');
      }
    </style>
    <clipPath id="tornPaperClip">
      <path
        d="M 0 3.76 L 41 0 L 82 1.88 L 123 0 L 164 2.82 L 205 0 L 246 1.88 L 287 0 L 328 2.82 L 369 0 L 410 3.76 L 405.9 18.8 L 410 32.9 L 401.8 47 L 410 61.1 L 405.9 75.2 L 410 90.24 L 369 94 L 328 91.18 L 287 94 L 246 92.12 L 205 94 L 164 91.18 L 123 94 L 82 92.12 L 41 94 L 0 90.24 L 4.1 75.2 L 0 61.1 L 8.2 47 L 0 32.9 L 4.1 18.8 Z"
      />
    </clipPath>
  </defs>
  <g clip-path="url(#tornPaperClip)">
    <rect x="0" y="0" width="410" height="94" fill="white" />
  </g>
  <g transform="translate(205, 47)">
    <svg
      x="-135"
      y="-35"
      width="58"
      height="70"
      viewBox="0 0 601 490"
      shape-rendering="geometricPrecision"
      fill-rule="evenodd"
      clip-rule="evenodd"
    >
      <g>
        <path
          style="opacity: 0.997"
          fill="#6366f1"
          d="M 413.5,-0.5 C 422.5,-0.5 431.5,-0.5 440.5,-0.5C 456.79,2.21267 471.457,8.71267 484.5,19C 501.407,37.6222 522.407,48.6222 547.5,52C 588.944,64.0603 605.444,91.227 597,133.5C 594.363,140.777 590.696,147.444 586,153.5C 580.136,159.699 573.969,165.532 567.5,171C 549.653,184.425 531.986,198.091 514.5,212C 463.586,259.822 449.086,316.989 471,383.5C 474.084,395.519 480.918,404.686 491.5,411C 503.85,413.188 516.184,415.521 528.5,418C 553.401,427.563 569.068,445.23 575.5,471C 574.298,480.358 569.298,486.525 560.5,489.5C 521.833,489.5 483.167,489.5 444.5,489.5C 424.171,485.412 407.671,475.079 395,458.5C 354.757,381.52 291.091,340.186 204,334.5C 200.167,334.833 196.333,335.167 192.5,335.5C 191.332,336.906 191.665,338.072 193.5,339C 273.005,342.805 332.839,378.638 373,446.5C 378.385,467.243 371.218,481.577 351.5,489.5C 282.167,489.5 212.833,489.5 143.5,489.5C 123.652,488.816 103.652,487.982 83.5,487C 46.8314,480.66 20.9981,460.493 6,426.5C 3.33838,418.837 1.17171,411.171 -0.5,403.5C -0.5,394.167 -0.5,384.833 -0.5,375.5C 1.52027,365.267 4.68694,355.267 9,345.5C 23.8337,317.005 42.1671,291.005 64,267.5C 135.956,194.134 217.123,133.301 307.5,85C 330.208,71.6256 347.375,53.1256 359,29.5C 373.554,12.809 391.72,2.80903 413.5,-0.5 Z M 434.5,67.5 C 459.349,65.5761 473.349,76.9095 476.5,101.5C 475.977,116.842 468.644,127.342 454.5,133C 439.374,137.426 426.207,134.259 415,123.5C 406.695,111.618 405.362,98.9516 411,85.5C 416.58,76.4706 424.413,70.4706 434.5,67.5 Z"
        />
      </g>
    </svg>
    <text
      x="-65"
      y="11"
      fill="#6366f1"
      font-family="'Williams Handwriting', cursive"
      font-size="46"
      font-weight="400"
      text-anchor="start"
    >
      Mirascope
    </text>
  </g>
</svg>
