<?xml version="1.0" encoding="UTF-8"?>
<svg xmlns="http://www.w3.org/2000/svg" viewBox="0 0 987.7 577.6">
  <!-- Adjustable transform wrapper - modify scale and translate values to position the logo -->
  <g transform="translate(-18, -2) scale(1.04)">
    <path fill="#409B45" d="M960.9,419.6c-6.5-1.1-182.5,2.6-183.9-1.4-1.5-4,151.9-22.3,153-26.6,1-4.3-76.4-36.4-113.7-43.7-33.4-6.5-84.2-16.1-151.4-23.7,4.1,14.4,10.2,24.1,18,27.6.3.1.6.3.8.4,1.6.8,7.4,3,11.3,4.5,2.6,1,5.1,1.9,6.7,2.6,15.6,6.4,27,25.6,27,45.8s-9.6,20.3-18,20.3h-34.5c8.3,10.9,13.4,25.3,13.4,40.2s-11.2,23.4-20.6,23.4h-96.2c-12.1,0-26.4-7.9-43.9-24.2-13.5-12.6-28.8-30.4-44.5-51.7l-.4.4c-.3,11.9-3,32.7-16.6,44-13.3,11-36.3,16.1-72.5,16.1s-31.8-.8-52.1-2.6c-68.9-5.8-109.6-28.5-128-71.4-7.4-17.3-14.8-41.2-9.4-70.8C31.3,361.9-8.8,443.2,38.2,477.6c13.5,9.9,49.7,26.4,53.3,26.3,3.6,0,7.4-2.8,11.8-3.8,4.4-1,94.8-9.2,95-6.8.2,2.3-79.2,17.3-79.2,19.6,0,2.3,128.9,27.8,158.5,31.2,45.5,5.2,134.3,13.5,203.8,13.5s422-23.3,475-81.8c17.8-19.7,11.1-55,4.6-56.2Z"/>
    <path fill="#6366f1" d="M719.1,75.1c-14.3-6-28.4-7.9-43-17.4-12-7.9-20.7-28.3-52.3-29.6-31.6-1.3-45.4,13.1-52.1,24.5-9.4,15.7-58.9,38.9-75.4,46.3C175.3,243.5,202.5,350.7,222.1,396.4c15.5,36.1,49.8,60.4,121.1,66.5,59.5,5.1,100.6,3.2,118.6-11.7,11.5-9.5,13.5-28.7,13.7-38.5-.8-6.3-2-12.5-3.8-18.5-20.2-64.1-97.7-79.5-157-76.8,63.1-6.8,146.2,8.1,168.2,76.8.7,2,1.3,4,1.8,6h0s0,0,0,0c34.8,48.9,67.6,80.7,87.7,80.7h96.2c4.3,0,12.5-8.2,12.5-15.3,0-23.2-13.1-41.6-27.6-48.3-5.2-2.4-12.8-5.8-24.6-10.6-13.7-5.6-58.2-30.2-56.1-93.1,3.7,54.9,45.9,78.5,57.9,83.9,6.2,2.8,33.9,13.1,40.1,19.7h39.5c3.4,0,9.9-6.5,9.9-12.1,0-18.4-10.5-33.6-21.9-38.3-4.2-1.7-15.6-5.9-18.6-7.4-3-1.5-25.5-9-28.5-70.8-2.9-60.2,22.4-79.7,25.3-82.8.3-.3.6-.5.8-.7,27.3-27.9,68.3-55.5,70-82.7,1.1-17.2-11-40.1-28.4-47.4ZM621.9,77.1c13.3,0,24.2,12.5,24.2,28s-10.8,28-24.2,28-24.2-12.5-24.2-28,10.8-28,24.2-28Z"/>
  </g>
</svg>
